<svg width="140" height="32" viewBox="0 0 140 32" fill="none" xmlns="http://www.w3.org/2000/svg">
<mask id="mask0_9766_15093" style="mask-type:luminance" maskUnits="userSpaceOnUse" x="2" y="20" width="6" height="5">
<path d="M2.03009 20.7905H7.69221V25H2.03009V20.7905Z" fill="white"></path>
</mask>
<g mask="url(#mask0_9766_15093)">
<path fill-rule="evenodd" clip-rule="evenodd" d="M5.66137 24.3826L7.67271 20.9885H2.05152V25H5.30056L5.66137 24.3826Z" fill="#040B05"></path>
</g>
<mask id="mask1_9766_15093" style="mask-type:luminance" maskUnits="userSpaceOnUse" x="2" y="13" width="10" height="5">
<path d="M2.03009 13.6486H11.9772V17.9336H2.03009V13.6486Z" fill="white"></path>
</mask>
<g mask="url(#mask1_9766_15093)">
<path fill-rule="evenodd" clip-rule="evenodd" d="M11.927 13.814H2.05152V17.7482H9.60594L11.927 13.814Z" fill="#040B05"></path>
</g>
<mask id="mask2_9766_15093" style="mask-type:luminance" maskUnits="userSpaceOnUse" x="2" y="7" width="15" height="5">
<path d="M2.0302 7H16.0241V11.0301H2.0302V7Z" fill="white"></path>
</mask>
<g mask="url(#mask2_9766_15093)">
<path fill-rule="evenodd" clip-rule="evenodd" d="M15.9487 7.00005H2.05152V10.9344H13.6287L15.9487 7.00005Z" fill="#040B05"></path>
</g>
<mask id="mask3_9766_15093" style="mask-type:luminance" maskUnits="userSpaceOnUse" x="8" y="7" width="23" height="18">
<path d="M8.88248 7.00004H30.5453V25H8.88248V7.00004Z" fill="white"></path>
</mask>
<g mask="url(#mask3_9766_15093)">
<path d="M19.7186 7.00006L9.04436 25H30.3157L19.7186 7.00006ZM19.6925 13.8915L23.9216 21.0656H15.4382L19.6925 13.8915Z" fill="url(#paint0_linear_9766_15093)"></path>
</g>
<mask id="mask4_9766_15093" style="mask-type:luminance" maskUnits="userSpaceOnUse" x="55" y="9" width="14" height="14">
<path d="M55.3789 9.4687H68.3459V22.5313H55.3789V9.4687Z" fill="white"></path>
</mask>
<g mask="url(#mask4_9766_15093)">
<path d="M67.3422 11.8748L65.6976 13.5182C64.6521 12.4214 63.4546 11.8748 62.0614 11.8748C60.8644 11.8748 59.8182 12.2738 59.0241 13.0711C58.2256 13.869 57.7783 14.8626 57.7783 16.007C57.7783 17.152 58.1779 18.1969 59.0241 18.9947C59.8701 19.841 60.9164 20.2392 62.1613 20.2392C62.9599 20.2392 63.654 20.0916 64.205 19.7408C64.7558 19.3901 65.2031 18.8435 65.55 18.1494H62.0137V15.9595H68.1927V16.4579C68.1927 17.5547 67.8932 18.6003 67.3467 19.4938C66.7995 20.4388 66.0491 21.1847 65.2031 21.6837C64.3051 22.1821 63.2589 22.4298 62.0657 22.4298C60.7681 22.4298 59.6744 22.1303 58.677 21.5836C57.6791 21.0371 56.8329 20.1917 56.2857 19.1943C55.6874 18.1969 55.3877 17.0525 55.4397 15.9076C55.4397 14.2642 55.9862 12.8716 57.0324 11.6753C58.3293 10.2827 59.9703 9.53296 62.0137 9.53296C63.0593 9.53296 64.0574 9.73244 65.0035 10.1314C65.8014 10.4785 66.5963 11.0769 67.3467 11.8748H67.3422Z" fill="#040B05"></path>
</g>
<path d="M31.5501 9.63689H38.2762V11.9268H33.8932V14.1687H38.2762V16.4105H33.8932V19.6452H38.2762V21.8871H31.5501V9.63689Z" fill="#040B05"></path>
<path d="M42.7584 9.63689H45.5487C47.341 9.63689 48.6379 9.83637 49.5359 10.2828C50.3826 10.73 51.1287 11.4278 51.6795 12.4252C52.2267 13.4226 52.5257 14.567 52.5257 15.9114C52.5257 16.8088 52.3781 17.7023 52.0266 18.5002C51.7276 19.2983 51.2805 19.9442 50.7297 20.4908C50.1825 21.0373 49.584 21.3887 48.9374 21.5881C48.2907 21.7877 47.1927 21.8871 45.6006 21.8871H42.8104L42.7623 9.64064L42.7584 9.63689ZM45.1016 11.8787V19.5971H46.1991C47.2447 19.5971 48.0432 19.4976 48.5423 19.2501C49.0413 19.0031 49.4403 18.6041 49.7397 18.0056C50.0392 17.4072 50.1868 16.7094 50.1868 15.8639C50.1868 14.567 49.8392 13.574 49.0888 12.8279C48.4422 12.182 47.3966 11.8824 45.8997 11.8824H45.1016V11.8787Z" fill="#040B05"></path>
<path d="M71.9409 9.88383H78.6664V12.1738H74.2838V14.4156H78.6664V16.6574H74.2838V19.8923H78.6664V22.1346H71.9409V9.88383Z" fill="#040B05"></path>
<path d="M85.1163 9.88389H87.9065C89.6986 9.88389 90.9955 10.0834 91.8942 10.5305C92.7402 10.977 93.487 11.6755 94.0371 12.6722C94.5843 13.6696 94.884 14.8146 94.884 16.1591C94.884 17.0564 94.7357 17.9501 94.4367 18.7479C94.1372 19.5458 93.6901 20.1917 93.1391 20.7383C92.5883 21.2848 91.9936 21.6358 91.347 21.8351C90.7003 22.0347 89.603 22.1346 88.0102 22.1346H85.22L85.1206 9.88825L85.1163 9.88389ZM87.4592 12.1257V19.8448H88.5568C89.603 19.8448 90.4009 19.7447 90.8999 19.4976C91.399 19.2501 91.7466 18.8516 92.0974 18.2534C92.3968 17.6549 92.5444 16.957 92.5444 16.1109C92.5444 14.8146 92.1975 13.8216 91.4471 13.0756C90.8005 12.429 89.7542 12.1301 88.3097 12.1301H87.463L87.4592 12.1257Z" fill="#040B05"></path>
<path d="M97.9969 9.88389H104.723V12.1738H100.34V14.4157H104.723V16.6575H100.34V19.8923H104.723V22.1346H97.9969V9.88389Z" fill="#040B05"></path>
<path d="M109.229 9.88389H111.572V19.9404H114.961V22.1303H109.233V9.88389H109.229Z" fill="#040B05"></path>
<path d="M117.816 9.88389H124.589V12.1738H122.345V22.1303H119.955V12.1738H117.764V9.88389H117.816Z" fill="#040B05"></path>
<mask id="mask5_9766_15093" style="mask-type:luminance" maskUnits="userSpaceOnUse" x="125" y="9" width="13" height="14">
<path d="M125.968 9.77634H137.97V22.2629H125.968V9.77634Z" fill="white"></path>
</mask>
<g mask="url(#mask5_9766_15093)">
<path d="M130.844 9.88394H133.234L137.969 22.1304H135.478L134.532 19.5897H129.498L128.501 22.1304H126.058L130.84 9.88394H130.844ZM132.041 13.1194L130.396 17.3516H133.686L132.041 13.1194Z" fill="#040B05"></path>
</g>
<defs>
<linearGradient id="paint0_linear_9766_15093" x1="14.3483" y1="10.1154" x2="28.2218" y2="12.3583" gradientUnits="userSpaceOnUse">
<stop stop-color="#00DA63"></stop>
<stop offset="1" stop-color="#27A1FF"></stop>
</linearGradient>
</defs>
</svg>